<svg width="68" height="68" viewBox="0 0 68 68" fill="none" xmlns="http://www.w3.org/2000/svg">
<g filter="url(#filter0_d_175_2083)">
<rect x="10" width="40" height="40" rx="20" fill="white"/>
</g>
<path d="M41.4923 13.8831C40.4631 10.8809 38.5603 9.28548 35.6683 9.01957C33.1234 8.78369 31.0132 10.7351 30 11.9188C28.9868 10.7522 26.8726 8.78369 24.3317 9.01957C21.4397 9.28548 19.5449 10.8766 18.5078 13.8831C18.0391 15.3655 17.8922 16.9436 18.0782 18.4965C18.2642 20.0494 18.7781 21.536 19.5808 22.8424C22.3212 27.3714 27.4191 30.2706 29.7287 31.1713C29.904 31.2394 30.096 31.2394 30.2713 31.1713C32.5809 30.2706 37.6788 27.3714 40.4192 22.8424C41.2219 21.536 41.7358 20.0494 41.9218 18.4965C42.1078 16.9436 41.9609 15.3655 41.4923 13.8831ZM39.1747 14.4235C39.0531 14.4976 38.9155 14.536 38.7758 14.535C38.6359 14.5348 38.4984 14.4951 38.3773 14.4198C38.2562 14.3446 38.1556 14.2364 38.0857 14.1061C37.5152 13.051 36.7095 12.5493 35.3971 12.4292H35.2535C35.1487 12.4348 35.0439 12.4182 34.9451 12.3803C34.8463 12.3424 34.7555 12.2839 34.6777 12.2083C34.5206 12.0554 34.4264 11.8418 34.4158 11.6143C34.4052 11.3868 34.4791 11.1641 34.6213 10.9952C34.7634 10.8263 34.9621 10.725 35.1737 10.7136H35.5327C35.6245 10.7136 35.8119 10.7437 35.9316 10.7651C36.0513 10.7866 36.1869 10.808 36.3305 10.8337C36.4542 10.8595 36.5778 10.8895 36.6975 10.9281C36.8172 10.9667 36.9368 11.0053 37.0485 11.0482C37.1602 11.0911 37.252 11.1254 37.3477 11.1726C37.8193 11.395 38.2513 11.7041 38.6242 12.0861C38.7821 12.2447 38.9263 12.4184 39.055 12.605C39.2265 12.8399 39.38 13.0895 39.5137 13.3513C39.588 13.5438 39.5945 13.7588 39.5322 13.9561C39.4698 14.1534 39.3427 14.3195 39.1747 14.4235Z" fill="#DD5050"/>
<defs>
<filter id="filter0_d_175_2083" x="0" y="0" width="68" height="68" filterUnits="userSpaceOnUse" color-interpolation-filters="sRGB">
<feFlood flood-opacity="0" result="BackgroundImageFix"/>
<feColorMatrix in="SourceAlpha" type="matrix" values="0 0 0 0 0 0 0 0 0 0 0 0 0 0 0 0 0 0 127 0" result="hardAlpha"/>
<feOffset dx="4" dy="14"/>
<feGaussianBlur stdDeviation="7"/>
<feComposite in2="hardAlpha" operator="out"/>
<feColorMatrix type="matrix" values="0 0 0 0 0 0 0 0 0 0 0 0 0 0 0 0 0 0 0.05 0"/>
<feBlend mode="normal" in2="BackgroundImageFix" result="effect1_dropShadow_175_2083"/>
<feBlend mode="normal" in="SourceGraphic" in2="effect1_dropShadow_175_2083" result="shape"/>
</filter>
</defs>
</svg>
